<svg xmlns="http://www.w3.org/2000/svg" viewBox="0 0 30 20"><rect width="30" height="20" fill="#EE1C25"/><g fill="#FFFF00"><polygon points="5,2 5.95,4.55 8.55,4.55 6.45,6.15 7.4,8.7 5,7.1 2.6,8.7 3.55,6.15 1.45,4.55 4.05,4.55"/><polygon points="10,1 10.27,1.83 11.13,1.83 10.43,2.34 10.7,3.17 10,2.66 9.3,3.17 9.57,2.34 8.87,1.83 9.73,1.83"/><polygon points="12,3 12.27,3.83 13.13,3.83 12.43,4.34 12.7,5.17 12,4.66 11.3,5.17 11.57,4.34 10.87,3.83 11.73,3.83"/><polygon points="12,6 12.27,6.83 13.13,6.83 12.43,7.34 12.7,8.17 12,7.66 11.3,8.17 11.57,7.34 10.87,6.83 11.73,6.83"/><polygon points="10,8 10.27,8.83 11.13,8.83 10.43,9.34 10.7,10.17 10,9.66 9.3,10.17 9.57,9.34 8.87,8.83 9.73,8.83"/></g></svg>
