<svg xmlns="http://www.w3.org/2000/svg" viewBox="0 0 1400 500" fill="none">
  <rect width="1400" height="500" fill="#001840"/>
  <defs>
    <linearGradient id="g4" x1="0" y1="0" x2="1400" y2="500">
      <stop offset="0%" stop-color="#00A8DC" stop-opacity="0.08"/>
      <stop offset="50%" stop-color="#001840"/>
      <stop offset="100%" stop-color="#0A66C2" stop-opacity="0.08"/>
    </linearGradient>
    <radialGradient id="rg4a" cx="0.5" cy="0.5" r="0.5">
      <stop offset="0%" stop-color="#0A66C2" stop-opacity="0.15"/>
      <stop offset="100%" stop-color="transparent"/>
    </radialGradient>
    <radialGradient id="rg4b" cx="0.5" cy="0.5" r="0.5">
      <stop offset="0%" stop-color="#00A8DC" stop-opacity="0.20"/>
      <stop offset="100%" stop-color="transparent"/>
    </radialGradient>
  </defs>
  <rect width="1400" height="500" fill="url(#g4)"/>
  <!-- Large account circle (big but faded) -->
  <circle cx="900" cy="250" r="180" stroke="#0077B5" stroke-width="1" fill="url(#rg4a)" opacity="0.4"/>
  <circle cx="900" cy="250" r="120" stroke="#0077B5" stroke-width="0.5" fill="none" opacity="0.15"/>
  <circle cx="900" cy="250" r="60" stroke="#0077B5" stroke-width="0.5" fill="none" opacity="0.1"/>
  <!-- Small account circle (small but bright) -->
  <circle cx="450" cy="250" r="70" stroke="#00A8DC" stroke-width="2" fill="url(#rg4b)" opacity="0.6"/>
  <circle cx="450" cy="250" r="35" fill="#00A8DC" opacity="0.08"/>
  <!-- Engagement pulses from small -->
  <circle cx="450" cy="250" r="90" stroke="#00A8DC" stroke-width="1" fill="none" opacity="0.12"/>
  <circle cx="450" cy="250" r="110" stroke="#00A8DC" stroke-width="0.5" fill="none" opacity="0.08"/>
  <circle cx="450" cy="250" r="130" stroke="#00A8DC" stroke-width="0.5" fill="none" opacity="0.04"/>
  <!-- Connection dots -->
  <g fill="#fff" opacity="0.08">
    <circle cx="420" cy="200" r="3"/><circle cx="480" cy="210" r="3"/><circle cx="440" cy="290" r="3"/><circle cx="470" cy="270" r="3"/>
    <circle cx="430" cy="240" r="3"/><circle cx="460" cy="260" r="3"/>
  </g>
  <g fill="#fff" opacity="0.03">
    <circle cx="830" cy="180" r="2"/><circle cx="970" cy="190" r="2"/><circle cx="860" cy="320" r="2"/><circle cx="940" cy="310" r="2"/>
    <circle cx="850" cy="230" r="2"/><circle cx="950" cy="270" r="2"/><circle cx="880" cy="150" r="2"/><circle cx="920" cy="350" r="2"/>
  </g>
</svg>